<svg xmlns="http://www.w3.org/2000/svg" width="1280" height="320" viewBox="0 0 1280 320" role="img" aria-labelledby="title desc">
  <title id="title">FrostPulse by Baron</title>
  <desc id="desc">NVIDIA GPU monitoring and tuning. Windows. French and English.</desc>
  <defs>
    <linearGradient id="bg" x2="1" y2="1"><stop stop-color="#0f191f"/><stop offset="1" stop-color="#182b35"/></linearGradient>
    <linearGradient id="accent"><stop stop-color="#a7e4ff"/><stop offset="1" stop-color="#64c7ed"/></linearGradient>
  </defs>
  <rect width="1280" height="320" rx="20" fill="url(#bg)"/>
  <path d="M0 284 H1280" stroke="#304954"/>
  <g transform="translate(102 132)" fill="none" stroke="#a7e4ff" stroke-width="5" stroke-linecap="round">
    <path d="M0 -42 V42 M-36 -21 L36 21 M-36 21 L36 -21"/>
    <path d="M-12 -31 L0 -21 L12 -31 M-12 31 L0 21 L12 31 M-32 -6 L-18 -10 L-20 -24 M32 6 L18 10 L20 24 M-32 6 L-18 10 L-20 24 M32 -6 L18 -10 L20 -24"/>
  </g>
  <text x="180" y="142" fill="url(#accent)" font-family="Segoe UI,Arial,sans-serif" font-size="72" font-weight="700" letter-spacing="2">FrostPulse</text>
  <text x="185" y="184" fill="#b8ccd6" font-family="Segoe UI,Arial,sans-serif" font-size="22" letter-spacing="5">BY BARON</text>
  <text x="185" y="246" fill="#e6f0f5" font-family="Segoe UI,Arial,sans-serif" font-size="24">Monitoring · GPU tuning · VRAM · OSD</text>
  <text x="1195" y="111" text-anchor="end" fill="#a7e4ff" font-family="Segoe UI,Arial,sans-serif" font-size="21" font-weight="600">NVIDIA GPU</text>
  <text x="1195" y="148" text-anchor="end" fill="#b8ccd6" font-family="Segoe UI,Arial,sans-serif" font-size="18">Windows 64-bit</text>
  <text x="1195" y="180" text-anchor="end" fill="#b8ccd6" font-family="Segoe UI,Arial,sans-serif" font-size="18">Français / English</text>
</svg>
